#N canvas 207 87 816 467 24;
#X obj 95 238 print;
#X floatatom 143 174 5 0 0 0 - - -;
#X msg 77 83 hello world;
#X text 220 81 <- message;
#X text 213 174 <- number;
#X text 175 236 <- object;
#X obj 348 78 pink~;
#X text 423 49 objects that receives;
#X text 424 72 and outputs audio signal;
#X text 424 96 in this case \, pink noise;
#X obj 348 427 dac~;
#X text 414 394 Digital Audio Converter;
#X text 412 425 Provides real-time audio output;
#X text 428 269 multiplies signal by 0.2;
#X text 427 319 of original volume;
#X text 426 294 i.e. \, plays the audio signal at 20%;
#X obj 390 205 receive noise_level;
#X text 89 40 Pd objects;
#X text 305 0 Patch example;
#X text 390 156 receives messages within;
#X text 391 175 the current patch;
#X obj 36 396 send noise_level;
#X text 0 67 inlet->;
#X text -8 93 outlet->;
#X msg 36 354 0;
#X text 97 339 sends a message;
#X text 97 362 to noise_level;
#X obj 348 299 *~ 0;
#X connect 1 0 0 0;
#X connect 2 0 0 0;
#X connect 6 0 27 0;
#X connect 16 0 27 1;
#X connect 24 0 21 0;
#X connect 27 0 10 0;
#X connect 27 0 10 1;
